<svg width="15" height="15" viewBox="0 0 15 15" fill="none" xmlns="http://www.w3.org/2000/svg">
<g id="Icons / Basic / Arrow Right" clip-path="url(#clip0_494_82)">
<path id="Vector 1" d="M0.625 6.75C0.210786 6.75 -0.125 7.08579 -0.125 7.5C-0.125 7.91421 0.210786 8.25 0.625 8.25V6.75ZM14.9053 8.03033C15.1982 7.73744 15.1982 7.26256 14.9053 6.96967L10.1324 2.1967C9.83947 1.90381 9.36459 1.90381 9.0717 2.1967C8.77881 2.48959 8.77881 2.96447 9.0717 3.25736L13.3143 7.5L9.0717 11.7426C8.77881 12.0355 8.77881 12.5104 9.0717 12.8033C9.36459 13.0962 9.83947 13.0962 10.1324 12.8033L14.9053 8.03033ZM0.625 8.25H14.375V6.75H0.625V8.25Z" fill="black"/>
</g>
<defs>
<clipPath id="clip0_494_82">
<rect width="15" height="15" fill="white"/>
</clipPath>
</defs>
</svg>
