<svg width="77" height="50" viewBox="0 0 77 50" fill="none" xmlns="http://www.w3.org/2000/svg">
<path d="M76.306 49.9608H57.5446L58.17 43.5681L49.9706 28.3505C49.4147 28.3505 48.7199 28.3505 48.0945 28.3505C46.9827 28.3505 45.8014 28.281 44.8286 28.2115V43.5681L48.9283 49.9608H30.8618L34.9615 43.5681V6.39276L30.8618 0H48.8588C51.4993 0.0694898 55.4601 0.347433 57.6836 0.972812C60.4631 1.80665 63.312 3.33536 65.6746 5.83687C72.9707 13.7583 68.1066 24.3898 60.6021 27.0303L69.6353 43.707L76.306 49.9608ZM44.8286 24.0423C52.8891 24.1813 59.2123 20.846 59.3513 14.8701C59.5598 6.11482 51.2909 4.03022 45.1066 3.68279C45.0371 3.68279 44.9676 3.68279 44.8286 3.68279V24.0423Z" fill="white"/>
<path d="M3.54381 0H27.2522L31.6587 6.44022L22.5136 18.9003C27.3082 21.5408 31.5469 25.988 31.4774 33.0756C31.4079 42.2478 24.8762 48.849 14.6617 49.8913C5.97584 50.7252 0 46.4865 0 46.4865V35.5771L11.9517 46.417C16.6073 45.2357 20.568 41.414 21.4713 35.9245C23.6254 22.9306 10.0061 19.0393 10.0061 19.0393C10.0061 19.0393 10.0061 18.9698 10.145 18.9003L25.5575 7.08255L2.01511 9.58914L3.54381 0Z" fill="white"/>
</svg>
