<svg width="264" height="50" viewBox="0 0 264 50" fill="none" xmlns="http://www.w3.org/2000/svg">
<path d="M228.91 16.7683C228.5 15.2654 228.364 13.6942 228.637 11.9864C230.072 4.54029 237.108 -0.446551 246.74 0.0316373C251.317 0.304889 255.894 1.53452 259.993 4.19872L261.7 16.2901C252.615 10.4152 239.021 4.33535 234.99 8.2975C233.965 15.607 248.175 18.4761 258.148 26.0589C261.017 28.2449 262.589 30.8408 263.272 33.2317C263.75 34.7346 263.886 36.3058 263.613 38.0136C262.179 45.4597 253.503 50.4466 243.939 49.9684C239.362 49.6951 234.102 47.714 230.208 45.6647L228.5 33.5733C237.586 39.4482 253.23 45.5963 257.26 41.7025C258.08 35.486 248.106 32.5486 239.021 27.1519C237.313 26.1955 235.673 25.1025 234.102 23.9412C231.916 22.2333 230.481 20.3889 229.593 18.5444C229.32 17.9296 229.115 17.3148 228.91 16.7683Z" fill="black"/>
<path d="M228.238 49.5587H195.516L199.547 43.2739V6.72647L195.516 0.441681H213.278L209.247 6.72647V46.2113L226.51 40.0673L228.238 49.5587Z" fill="black"/>
<path d="M160.182 0.441681H191.743L193.245 9.86886L173.913 3.85733V22.4384H185.353L181.254 29.2014L173.913 25.9224V46.143L193.245 40.1315L191.743 49.5587H160.182L164.144 43.2739V6.72647L160.182 0.441681Z" fill="black"/>
<path d="M150.569 22.5751C158.561 24.3512 164.368 35.5545 156.785 43.7521C154.462 46.2796 151.662 47.7142 148.929 48.534C146.333 49.3537 142.508 49.5587 140.185 49.5587C139.844 49.5587 122.492 49.5587 122.492 49.5587L126.523 43.2739V6.65816L122.492 0.441681H134.174H140.937C145.923 0.441681 150.432 1.12481 153.916 4.47214C155.76 6.31659 156.99 9.11742 156.785 12.6697C156.58 15.0606 155.829 17.3833 153.779 19.7742C152.755 20.9356 151.662 21.8236 150.5 22.5751H150.569ZM136.223 3.92564V21.6187C141.961 21.3454 147.016 18.408 147.016 12.6697C147.016 6.04334 141.141 4.19889 136.223 3.92564ZM136.496 45.9381C142.576 45.5282 150.774 43.5471 150.569 34.8714C150.432 28.9965 144.147 25.7858 136.223 25.9224V45.9381C136.36 45.9381 136.428 45.9381 136.496 45.9381Z" fill="black"/>
<path d="M87.4614 0.441681H119.022L120.525 9.86886L101.192 3.85733V22.4384H116.836L112.737 29.2014L101.192 25.9224V46.143L120.525 40.1315L119.022 49.5587H87.4614L91.4236 43.2739V6.72647L87.4614 0.441681Z" fill="black"/>
<path d="M89.4333 49.5587H70.9889L71.6037 43.2739L63.5428 28.3133C62.9963 28.3133 62.3131 28.3133 61.6983 28.3133C60.6053 28.3133 59.444 28.245 58.4876 28.1767V43.2739L62.5181 49.5587H44.7567L48.7872 43.2739V6.72647L44.7567 0.441681H62.4498C65.0456 0.509997 68.9395 0.783245 71.1255 1.39806C73.858 2.21782 76.6588 3.7207 78.9815 6.17997C86.1543 13.9676 81.3724 24.4195 73.9946 27.0154L82.8753 43.4105L89.4333 49.5587ZM58.4876 24.0779C66.4119 24.2146 72.6284 20.9356 72.765 15.0606C72.9699 6.45322 64.8407 4.40383 58.7609 4.06227C58.6925 4.06227 58.6242 4.06227 58.4876 4.06227V24.0779Z" fill="black"/>
<path d="M3.54381 0H27.2522L31.6587 6.44022L22.5136 18.9003C27.3082 21.5408 31.5469 25.988 31.4774 33.0756C31.4079 42.2478 24.8762 48.849 14.6617 49.8913C5.97584 50.7252 0 46.4865 0 46.4865V35.5771L11.9517 46.417C16.6073 45.2357 20.568 41.414 21.4713 35.9245C23.6254 22.9306 10.0061 19.0393 10.0061 19.0393C10.0061 19.0393 10.0061 18.9698 10.145 18.9003L25.5575 7.08255L2.01511 9.58914L3.54381 0Z" fill="black"/>
</svg>
